#!OML:ASF H:\ManfredObstacles\Project 1\Capture day 1\Session 1\Male.ASF
:FULLY-SPECIFIED
:DEGREES
465
root -15.3836 16.5167 4.46114 38.3428 -81.4321 -388.235
lowerback -11.8161 -1.9314 -0.493048
upperback 1.13875 -2.68851 2.10291
thorax 7.98096 -1.38776 2.01056
lowerneck -2.52296 -0.127338 -5.65391
upperneck -3.72289 0.0715486 10.3493
head -0.756608 -0.0012884 4.43521
rclavicle 1.11816e-014 -2.25621e-014
rhumerus -36.8834 -27.6511 -70.6827
rradius 24.1599
rwrist 34.8133
rhand 0.250794 -5.46046
rfingers 7.12502
rthumb 25.8306 -33.7265
lclavicle 1.11816e-014 -2.25621e-014
lhumerus -23.4763 4.27073 90.0595
lradius 22.6938
lwrist -22.5753
lhand -8.48567 10.4632
lfingers 7.12502
lthumb 17.4415 39.7007
rfemur -30.5755 -7.19115 24.7721
rtibia 30.3785
rfoot -9.67999 13.0505
rtoes 13.0374
lfemur 6.39216 -3.82991 -15.6083
ltibia 2.22639e-014
lfoot -3.77346 -11.8266
ltoes 5.41969
466
root -15.3733 16.5112 4.462 39.2268 -81.368 -389.08
lowerback -11.8281 -1.84581 -0.294386
upperback 1.13481 -2.60514 2.11971
thorax 7.97154 -1.33918 1.93166
lowerneck -2.582 -0.0389275 -5.57541
upperneck -3.667 0.186274 10.2206
head -0.737579 0.0589651 4.37249
rclavicle -3.52967e-014 1.71949e-014
rhumerus -37.1172 -28.0907 -70.3822
rradius 24.088
rwrist 35.0934
rhand 0.295933 -5.29434
rfingers 7.12502
rthumb 25.8738 -33.5541
lclavicle -3.52967e-014 1.71949e-014
lhumerus -23.4085 3.51915 90.4104
lradius 22.9729
lwrist -22.0395
lhand -8.85642 10.5763
lfingers 7.12502
lthumb 17.0846 39.8451
rfemur -30.679 -7.02416 24.8905
rtibia 30.4223
rfoot -9.81361 12.8723
rtoes 12.7522
lfemur 6.31051 -3.79697 -15.4537
ltibia -6.36111e-015
lfoot -3.62123 -11.9142
ltoes 7.14975
467
root -15.3628 16.5061 4.46453 40.5471 -81.3153 -390.39
lowerback -11.7854 -1.79649 -0.0784838
upperback 1.11196 -2.5778 2.20094
thorax 7.91568 -1.31911 1.90255
lowerneck -2.69925 0.0940006 -5.53031
upperneck -3.68185 0.367003 10.1515
head -0.737048 0.15155 4.33896
rclavicle -1.29086e-014 -4.87022e-015
rhumerus -37.3143 -28.4545 -69.991
rradius 23.9518
rwrist 35.6205
rhand 0.313432 -5.21958
rfingers 7.12502
rthumb 25.8906 -33.4769
lclavicle -1.29086e-014 -4.87022e-015
lhumerus -23.3714 3.04365 90.727
lradius 23.1053
lwrist -21.6782
lhand -9.15102 10.8605
lfingers 7.12502
lthumb 16.8011 40.1536
rfemur -30.7466 -6.89054 25.069
rtibia 30.4486
rfoot -9.94661 12.7474
rtoes 12.5474
lfemur 6.26133 -3.709 -15.259
ltibia -9.54166e-015
lfoot -3.47769 -11.9292
ltoes 8.60371
468
root -15.3548 16.5033 4.46787 41.0821 -81.3796 -390.913
lowerback -11.7833 -1.7699 -0.0360345
upperback 1.11141 -2.55228 2.24106
thorax 7.91305 -1.30616 1.92603
lowerneck -2.7181 0.186455 -5.49401
upperneck -3.73221 0.492842 10.0186
head -0.760321 0.214887 4.28423
rclavicle -1.13928e-014 1.63003e-014
rhumerus -37.4984 -28.8891 -69.6077
rradius 23.8419
rwrist 36.1475
rhand 0.359135 -5.09895
rfingers 7.12502
rthumb 25.9343 -33.3498
lclavicle -1.13928e-014 1.63003e-014
lhumerus -23.3224 2.84233 90.9568
lradius 23.155
lwrist -21.5267
lhand -9.40826 11.202
lfingers 7.12502
lthumb 16.5534 40.5159
rfemur -30.7957 -6.77935 25.0657
rtibia 30.4551
rfoot -10.1268 12.601
rtoes 11.933
lfemur 6.24269 -3.60699 -15.2639
ltibia 1.27222e-014
lfoot -3.53405 -11.9222
ltoes 8.5714
469
root -15.3488 16.5028 4.4738 40.7422 -81.4781 -390.563
lowerback -11.8291 -1.7182 -0.0220369
upperback 1.14034 -2.47924 2.16377
thorax 7.96309 -1.26769 1.84826
lowerneck -2.63302 0.200029 -5.39082
upperneck -3.89001 0.514333 9.95332
head -0.82774 0.219582 4.24093
rclavicle -1.30825e-014 8.15017e-015
rhumerus -37.5868 -28.3365 -69.9253
rradius 24.051
rwrist 35.2929
rhand 0.307216 -5.25224
rfingers 7.12502
rthumb 25.8846 -33.5104
lclavicle -1.30825e-014 8.15017e-015
lhumerus -23.2469 2.58565 91.0987
lradius 23.121
lwrist -21.4194
lhand -9.53233 11.4827
lfingers 7.12502
lthumb 16.434 40.8066
rfemur -30.8108 -6.65654 24.889
rtibia 30.4551
rfoot -10.3569 12.4467
rtoes 11.1503
lfemur 6.23967 -3.56467 -15.4191
ltibia 3.18055e-014
lfoot -3.77072 -11.8709
ltoes 7.05418
470
root -15.3437 16.5022 4.4829 40.9268 -81.469 -390.746
lowerback -11.8737 -1.66038 0.149526
upperback 1.16167 -2.42362 2.1129
thorax 7.99976 -1.2317 1.70652
lowerneck -2.49919 0.226676 -5.25088
upperneck -4.09389 0.553871 9.88542
head -0.92009 0.230571 4.18989
rclavicle -2.29224e-014 8.94531e-016
rhumerus -37.6594 -27.8639 -70.1973
rradius 24.1745
rwrist 34.5139
rhand 0.0900153 -5.49919
rfingers 7.12502
rthumb 25.6766 -33.7875
lclavicle -2.29224e-014 8.94531e-016
lhumerus -23.174 2.44874 91.1946
lradius 22.9337
lwrist -21.4663
lhand -9.51634 11.4329
lfingers 7.12502
lthumb 16.4494 40.7555
rfemur -30.8198 -6.55298 24.8428
rtibia 30.4616
rfoot -10.5256 12.3449
rtoes 10.755
lfemur 6.23468 -3.55229 -15.4338
ltibia -3.18055e-014
lfoot -3.91059 -11.8767
ltoes 6.23078
471
root -15.3362 16.5012 4.49009 40.9253 -81.3801 -390.707
lowerback -11.8797 -1.67487 0.251271
upperback 1.14217 -2.46094 2.14709
thorax 7.9807 -1.24651 1.67844
lowerneck -2.42531 0.274421 -5.19682
upperneck -4.18664 0.619267 9.79994
head -0.968103 0.259976 4.14908
rclavicle 7.86442e-015 -3.27995e-015
rhumerus -37.7624 -27.9499 -70.0331
rradius 24.101
rwrist 34.4666
rhand 0.0739604 -5.53043
rfingers 7.12502
rthumb 25.6612 -33.821
lclavicle 7.86442e-015 -3.27995e-015
lhumerus -23.1646 2.52613 91.2984
lradius 22.6777
lwrist -21.7454
lhand -9.53597 11.3272
lfingers 7.12502
lthumb 16.4305 40.6514
rfemur -30.8788 -6.53668 24.8477
rtibia 30.4655
rfoot -10.5513 12.2275
rtoes 10.8379
lfemur 6.16608 -3.61859 -15.4148
ltibia 1.59028e-014
lfoot -4.01165 -11.8786
ltoes 5.99543
